<svg xmlns="http://www.w3.org/2000/svg" width="1280" height="760" viewBox="0 0 1280 760">
  <defs>
    <marker id="arrow" markerWidth="10" markerHeight="10" refX="9" refY="3" orient="auto" markerUnits="strokeWidth">
      <path d="M0,0 L0,6 L9,3 z" fill="#334155"/>
    </marker>
    <style>
      .title { font: 700 30px Arial, sans-serif; fill: #0f172a; }
      .subtitle { font: 16px Arial, sans-serif; fill: #475569; }
      .box { fill: #ffffff; stroke: #334155; stroke-width: 2; rx: 8; }
      .data { fill: #ecfeff; stroke: #0891b2; }
      .train { fill: #f0fdf4; stroke: #16a34a; }
      .infer { fill: #fff7ed; stroke: #ea580c; }
      .out { fill: #fef2f2; stroke: #dc2626; }
      .text { font: 16px Arial, sans-serif; fill: #0f172a; }
      .small { font: 13px Arial, sans-serif; fill: #475569; }
      .arrow { stroke: #334155; stroke-width: 2; fill: none; marker-end: url(#arrow); }
      .lane { fill: #f8fafc; stroke: #cbd5e1; stroke-width: 1; rx: 12; }
    </style>
  </defs>

  <rect x="0" y="0" width="1280" height="760" fill="#f8fafc"/>
  <text x="40" y="54" class="title">Cross-scale Chip Crack Detection System</text>
  <text x="40" y="82" class="subtitle">YOLO-seg training, mask/bbox fusion, bbox JSON submission</text>

  <rect x="32" y="120" width="1216" height="150" class="lane"/>
  <text x="52" y="150" class="subtitle">Data preparation</text>
  <rect x="62" y="176" width="210" height="62" class="box data"/>
  <text x="82" y="203" class="text">dataset/trainval</text>
  <text x="82" y="224" class="small">gray images + trainval.json</text>
  <rect x="352" y="176" width="230" height="62" class="box data"/>
  <text x="372" y="203" class="text">prepare_yolo_seg.py</text>
  <text x="372" y="224" class="small">bbox + segmentation to YOLO labels</text>
  <rect x="662" y="176" width="220" height="62" class="box data"/>
  <text x="682" y="203" class="text">data/yolo_seg</text>
  <text x="682" y="224" class="small">images/train, images/val, labels</text>
  <rect x="962" y="176" width="220" height="62" class="box data"/>
  <text x="982" y="203" class="text">data/crack_seg.yaml</text>
  <text x="982" y="224" class="small">single class: crack</text>
  <path d="M272 207 L352 207" class="arrow"/>
  <path d="M582 207 L662 207" class="arrow"/>
  <path d="M882 207 L962 207" class="arrow"/>

  <rect x="32" y="300" width="1216" height="150" class="lane"/>
  <text x="52" y="330" class="subtitle">Training and validation</text>
  <rect x="62" y="356" width="230" height="62" class="box train"/>
  <text x="82" y="383" class="text">train_yolo_seg.py</text>
  <text x="82" y="404" class="small">config: yolo_seg_crack_hybrid.yaml</text>
  <rect x="382" y="356" width="240" height="62" class="box train"/>
  <text x="402" y="383" class="text">YOLO-seg model</text>
  <text x="402" y="404" class="small">Backbone + FPN/PAN + Detect/Seg heads</text>
  <rect x="712" y="356" width="220" height="62" class="box train"/>
  <text x="732" y="383" class="text">runs/crack_yolo_seg</text>
  <text x="732" y="404" class="small">best.pt, last.pt, results.csv</text>
  <rect x="1012" y="356" width="180" height="62" class="box train"/>
  <text x="1032" y="383" class="text">TensorBoard</text>
  <text x="1032" y="404" class="small">loss, P/R, mAP curves</text>
  <path d="M292 387 L382 387" class="arrow"/>
  <path d="M622 387 L712 387" class="arrow"/>
  <path d="M932 387 L1012 387" class="arrow"/>
  <path d="M772 238 C772 280 177 300 177 356" class="arrow"/>

  <rect x="32" y="480" width="1216" height="205" class="lane"/>
  <text x="52" y="510" class="subtitle">Inference, post-processing, and submission</text>
  <rect x="62" y="540" width="190" height="62" class="box infer"/>
  <text x="82" y="567" class="text">dataset/test</text>
  <text x="82" y="588" class="small">gray images + test.json</text>
  <rect x="312" y="540" width="220" height="62" class="box infer"/>
  <text x="332" y="567" class="text">infer_submit_seg.py</text>
  <text x="332" y="588" class="small">direct / global / tiled inference</text>
  <rect x="592" y="540" width="230" height="62" class="box infer"/>
  <text x="612" y="567" class="text">mask + bbox fusion</text>
  <text x="612" y="588" class="small">NMS, union, expansion, clipping</text>
  <rect x="882" y="540" width="190" height="62" class="box out"/>
  <text x="902" y="567" class="text">results.json</text>
  <text x="902" y="588" class="small">predict_bboxes for 301 images</text>
  <rect x="882" y="625" width="190" height="38" class="box out"/>
  <text x="902" y="649" class="small">check_submit.py validates format</text>
  <path d="M252 571 L312 571" class="arrow"/>
  <path d="M532 571 L592 571" class="arrow"/>
  <path d="M822 571 L882 571" class="arrow"/>
  <path d="M977 602 L977 625" class="arrow"/>
  <path d="M822 387 C840 430 422 486 422 540" class="arrow"/>

  <text x="40" y="724" class="small">Key editable files: configs/yolo_seg_crack_hybrid.yaml, src/train_yolo_seg.py, src/infer_submit_seg.py, src/eval_submission.py</text>
</svg>
